<svg width="31" height="31" viewBox="0 0 31 31" fill="none" xmlns="http://www.w3.org/2000/svg">
<path d="M27.9 6.77438H21.7011V3.60204C21.7022 3.18504 21.6227 2.77194 21.4672 2.38649C21.3117 2.00104 21.0833 1.65084 20.7951 1.35603C20.5069 1.06122 20.1646 0.827611 19.7879 0.668639C19.4112 0.509667 19.0075 0.428464 18.6 0.429701H12.4C11.9926 0.428619 11.589 0.509935 11.2124 0.668977C10.8358 0.828019 10.4937 1.06165 10.2056 1.35644C9.91754 1.65124 9.68924 2.00139 9.53382 2.38676C9.37841 2.77213 9.29895 3.18514 9.3 3.60204V6.77438H3.10001C2.69331 6.77321 2.29043 6.85458 1.91467 7.01378C1.53891 7.17299 1.19773 7.40687 0.910871 7.70189C0.624014 7.99691 0.397176 8.34722 0.243482 8.73254C0.0897875 9.11786 0.012289 9.53055 0.0154703 9.94672L1.04194e-05 27.3946C-0.00104716 27.8115 0.0784148 28.2245 0.23383 28.6099C0.389245 28.9952 0.617548 29.3454 0.90562 29.6402C1.19369 29.935 1.53585 30.1686 1.91244 30.3277C2.28903 30.4867 2.69261 30.568 3.10001 30.5669H27.9C28.3074 30.568 28.711 30.4867 29.0876 30.3277C29.4641 30.1686 29.8063 29.935 30.0944 29.6402C30.3825 29.3454 30.6108 28.9952 30.7662 28.6099C30.9216 28.2245 31.001 27.8115 31 27.3946V9.94672C31.001 9.52982 30.9216 9.11682 30.7662 8.73144C30.6108 8.34607 30.3825 7.99592 30.0944 7.70113C29.8063 7.40633 29.4641 7.1727 29.0876 7.01366C28.711 6.85462 28.3074 6.7733 27.9 6.77438ZM18.6 6.77438H12.4V3.60204H18.6V6.77438Z" fill="#006B59"/>
</svg>
