<svg width="23" height="23" viewBox="0 0 23 23" fill="none" xmlns="http://www.w3.org/2000/svg">
<path d="M5.78966 1.3139C5.68912 1.54104 5.62136 4.99891 5.62136 11.3218C5.62136 19.5482 5.58785 21.0504 5.36927 21.4865C5.26608 21.6688 5.18159 21.862 5.11719 22.0627C5.11719 22.0975 8.49557 22.1149 12.6462 22.0801L20.1585 22.0309L20.9483 21.5592C21.4368 21.275 21.8299 20.8422 22.0747 20.319C22.4106 19.5853 22.4273 19.3407 22.4273 10.5556C22.4273 5.59554 22.377 1.42141 22.3268 1.26393C22.243 1.01937 21.3519 0.984537 14.0939 0.984537C6.22607 0.982265 5.95723 0.999684 5.78966 1.3139ZM18.7138 4.9815C18.7743 5.07275 18.8038 5.18234 18.7978 5.29297C18.7917 5.40361 18.7504 5.50899 18.6803 5.59251C18.4952 5.85448 18.0078 5.8719 13.9409 5.83707C9.73924 5.78483 9.40337 5.76741 9.35092 5.47061C9.19937 4.6847 9.4347 4.64987 14.1238 4.64987C18.2766 4.64987 18.5622 4.66728 18.7138 4.9815ZM18.63 8.59686C18.7549 8.70131 18.8482 8.84087 18.8988 8.9989C18.8988 9.48802 18.3109 9.54026 13.9242 9.50543C9.72249 9.45319 9.40337 9.43578 9.3531 9.13898C9.20156 8.35306 9.43689 8.31823 14.0422 8.31823C17.7557 8.31748 18.4114 8.3523 18.63 8.59686ZM18.7138 12.4045C18.7701 12.4848 18.8049 12.579 18.8147 12.6778C18.8245 12.7766 18.809 12.8762 18.7697 12.9667C18.7304 13.0572 18.6687 13.1353 18.5909 13.1929C18.5131 13.2506 18.422 13.2858 18.3269 13.2949C18.1419 13.3472 16.0917 13.3646 13.7894 13.3472C10.1589 13.2949 9.5877 13.2601 9.43689 13.0155C9.38938 12.929 9.35898 12.8334 9.34747 12.7345C9.33596 12.6355 9.34357 12.5352 9.36986 12.4394C9.4704 12.1948 9.97457 12.16 13.9919 12.16C17.6209 12.16 18.5622 12.2122 18.7138 12.4045ZM18.7138 16.16C18.7743 16.2512 18.8038 16.3608 18.7978 16.4714C18.7917 16.5821 18.7504 16.6875 18.6803 16.771C18.4952 17.033 18.0078 17.0504 13.9409 17.0155C9.73924 16.9633 9.40337 16.9459 9.35092 16.6491C9.19937 15.8632 9.4347 15.8283 14.1238 15.8283C18.2766 15.8276 18.5622 15.845 18.7138 16.16Z" fill="#006B59"/>
<path d="M1.11783 3.63826C0.966287 3.79575 0.916016 5.82187 0.916016 12.2311C0.916016 20.2651 0.932773 20.6498 1.25189 21.1911C1.40779 21.4242 1.61318 21.617 1.85218 21.7545C2.09119 21.892 2.35741 21.9705 2.63028 21.9841C2.90315 21.9976 3.17537 21.9458 3.42589 21.8326C3.67641 21.7194 3.89854 21.5478 4.0751 21.3312L4.44449 20.8769L4.41316 12.1963L4.36289 3.51561L2.85037 3.46336C1.80706 3.42853 1.26864 3.48154 1.11783 3.63826Z" fill="#006B59"/>
</svg>
