<svg width="26" height="25" viewBox="0 0 26 25" fill="none" xmlns="http://www.w3.org/2000/svg">
<path d="M8.97178 1.17651C8.28003 1.52751 7.6094 1.9321 6.96442 2.38752C6.04106 3.08625 4.2146 5.18327 4.2146 5.53263C4.2146 5.67204 5.03737 5.74258 6.26249 5.69555L8.28867 5.62585L9.0123 3.97142C9.39233 3.1084 9.82143 2.2757 10.2968 1.47884C10.7787 0.733083 10.8185 0.617187 10.4972 0.617187C9.97195 0.735201 9.46012 0.922872 8.97178 1.17651Z" fill="#006B59"/>
<path d="M15.3169 1.34273C15.7968 2.15657 16.2318 3.00479 16.6195 3.88233L17.4024 5.62999L19.4496 5.6997C20.7521 5.74589 21.4758 5.67618 21.4758 5.51326C21.1485 4.92892 20.7571 4.39649 20.3114 3.92936C18.978 2.43115 17.3528 1.32835 15.5738 0.714545L14.7952 0.550781L15.3169 1.34273Z" fill="#006B59"/>
<path d="M11.9834 1.83385C11.2101 2.99133 10.5565 4.25014 10.0361 5.58446C10.9659 5.74829 11.9075 5.80288 12.8467 5.74739C13.7859 5.80288 14.7276 5.74829 15.6573 5.58446C15.6573 4.93193 13.2281 0.855469 12.8467 0.855469C12.5092 1.11664 12.2164 1.44841 11.9834 1.83385Z" fill="#006B59"/>
<path d="M0 12.4979L0 17.6208L25.6949 17.6208L25.6949 7.375L0 7.375L0 12.4979ZM4.95835 9.55852C5.30616 10.1145 5.62769 10.6921 5.92151 11.2885C6.10495 11.746 6.36439 12.157 6.68495 12.4979C6.82416 11.9303 6.87175 11.3378 6.82533 10.7502C6.82533 9.04959 6.8456 9.00257 7.32754 9.00257H7.82974L7.82974 15.5254H7.3478C6.94618 15.5254 6.66541 15.176 5.88244 13.7316L4.92072 11.9176L4.86066 13.7349L4.79771 15.5288H3.61311L3.61311 9.00592L4.09506 9.00592C4.26446 9.02478 4.42866 9.08422 4.57725 9.1805C4.72585 9.27677 4.85562 9.40778 4.95835 9.56524V9.55852ZM11.6028 9.74496C11.6628 10.374 11.6426 10.3975 10.7597 10.3975C9.91671 10.3975 9.83638 10.4437 9.83638 10.9803C9.83638 11.4926 9.91671 11.5632 10.6396 11.5632C11.4023 11.5632 11.4429 11.6094 11.4429 12.2619C11.4429 12.9144 11.4031 12.9606 10.6396 12.9606C9.91598 12.9606 9.83638 13.0068 9.83638 13.5434C9.83638 14.0801 9.91671 14.1263 10.7395 14.1263C11.6028 14.1263 11.6426 14.1498 11.6426 14.825V15.5237L8.63153 15.5237L8.63153 8.97317L10.0969 9.05463C11.5058 9.12266 11.5427 9.14533 11.6028 9.75168V9.74496ZM13.1485 9.27886C13.1883 9.44179 13.3294 10.2111 13.4698 10.9795C13.5899 11.7479 13.731 12.261 13.7708 12.1443C13.8106 12.0049 13.9712 11.3045 14.1521 10.5604C14.4532 9.34941 14.5335 9.23267 15.0357 9.23267C15.5379 9.23267 15.6146 9.34941 15.9764 10.7939L16.378 12.3778L16.6588 10.6772C16.9201 9.02272 16.9396 8.97653 17.4418 9.11594C17.6329 9.17178 17.8207 9.24191 18.0041 9.32589C17.8932 10.3759 17.7323 11.4181 17.5221 12.4475C17.0004 15.4994 17.0004 15.5229 16.4584 15.5229C15.9562 15.5229 15.8795 15.4062 15.5553 14.0549C15.4341 13.4836 15.2799 12.9224 15.0936 12.3753C15.0133 12.2359 14.7723 12.8649 14.5516 13.7727C14.1702 15.2172 14.0697 15.4036 13.5877 15.4733C12.9856 15.5666 13.066 15.7765 12.4436 12.1653C11.9617 9.36956 11.9617 9.29986 12.4038 9.16045C12.9878 8.98241 13.0681 9.00592 13.1485 9.28558V9.27886ZM21.3386 9.51149C21.7004 9.72144 21.7004 9.76763 21.3784 10.164C21.2354 10.3217 21.0633 10.4394 20.8752 10.5081C20.6871 10.5768 20.4879 10.5947 20.2929 10.5604C19.2075 10.4907 19.3898 11.0265 20.6743 11.7488C21.5578 12.261 21.8183 12.5172 21.9587 13.1462C22.3003 14.5672 21.0752 15.7555 19.6503 15.4297C19.2669 15.3403 18.8997 15.1746 18.5649 14.9401C18.1835 14.5907 18.1835 14.5672 18.6047 14.0784C18.9665 13.682 19.1069 13.6358 19.3471 13.8685C19.7487 14.2649 20.7524 14.1011 20.8328 13.6358C20.8726 13.3562 20.612 13.1235 19.9695 12.8204C19.0056 12.4005 18.2631 11.5388 18.2631 10.8636C18.335 10.4802 18.4883 10.1237 18.7093 9.82663C18.9302 9.52959 19.2117 9.30144 19.528 9.16297C20.1482 9.08544 20.7748 9.20838 21.3386 9.51821V9.51149Z" fill="#006B59"/>
<path d="M4.2146 19.4902C4.55849 20.0946 4.97024 20.6431 5.43899 21.1212C6.78646 22.6155 8.42487 23.7103 10.215 24.3125L10.8974 24.4519L10.3756 23.6599C9.89578 22.8461 9.46073 21.9979 9.07309 21.1203L8.29012 19.3727L6.24223 19.303C4.93824 19.2568 4.2146 19.3273 4.2146 19.4902Z" fill="#006B59"/>
<path d="M10.0361 19.4223C10.5844 20.8253 11.2861 22.1407 12.1238 23.3358L12.8475 24.268L13.5711 23.3358C14.4088 22.1407 15.1105 20.8253 15.6588 19.4223C14.7285 19.2583 13.7864 19.2037 12.8467 19.2593C11.9075 19.2038 10.9659 19.2584 10.0361 19.4223Z" fill="#006B59"/>
<path d="M17.3843 19.447C17.3445 19.5402 16.9625 20.3556 16.5811 21.2408C16.209 22.0744 15.7863 22.8762 15.3162 23.6402L14.7952 24.4531L15.5781 24.2902C17.3622 23.6777 18.9892 22.5656 20.3158 21.0518C20.7614 20.5847 21.1528 20.0523 21.4801 19.468C21.4801 19.2135 17.5254 19.1908 17.3843 19.447Z" fill="#006B59"/>
</svg>
